<svg width="101" height="70" viewBox="0 0 101 70" fill="none" xmlns="http://www.w3.org/2000/svg">
<path d="M0.408508 20.7159C0.408508 9.67025 9.36281 0.715942 20.4085 0.715942H100.605V50C100.605 61.0457 91.6507 70 80.6051 70H0.408508V20.7159Z" fill="#AED581"/>
<path d="M79.85 35.358C72.3752 60.105 60.5263 43.8551 51.9381 64.1174C41.2027 43.8551 28.3916 58.8293 21.1634 35.358C14.7222 14.442 35.337 9.21301 51.9381 9.21301C68.5392 9.21301 85.5753 16.4029 79.85 35.358Z" fill="white"/>
<line x1="51.0068" y1="20.3247" x2="51.0068" y2="45.1624" stroke="#AED581"/>
<path d="M62.3113 27.2144C62.5065 27.0191 62.5065 26.7025 62.3113 26.5073L59.1293 23.3253C58.934 23.13 58.6174 23.13 58.4222 23.3253C58.2269 23.5206 58.2269 23.8372 58.4222 24.0324L61.2506 26.8608L58.4222 29.6893C58.2269 29.8845 58.2269 30.2011 58.4222 30.3964C58.6174 30.5916 58.934 30.5916 59.1293 30.3964L62.3113 27.2144ZM41.9184 27.3608H61.9577V26.3608H41.9184V27.3608Z" fill="#AED581"/>
<path d="M41.5598 37.2109C41.3673 37.4085 41.3719 37.725 41.57 37.9179L44.7976 41.0613C44.9957 41.2542 45.3123 41.2504 45.5047 41.0528C45.6971 40.8552 45.6925 40.5386 45.4945 40.3457L42.6254 37.5517L45.4129 34.6895C45.6053 34.4919 45.6007 34.1753 45.4027 33.9824C45.2046 33.7896 44.888 33.7934 44.6956 33.991L41.5598 37.2109ZM61.9488 36.819L41.9112 37.0602L41.9256 38.0601L61.9632 37.8189L61.9488 36.819Z" fill="#AED581"/>
</svg>
